<?xml version="1.0" encoding="iso-8859-1"?>
<!-- Generator: Adobe Illustrator 19.0.0, SVG Export Plug-In . SVG Version: 6.00 Build 0)  -->
<svg version="1.1" id="Layer_1" xmlns="http://www.w3.org/2000/svg" xmlns:xlink="http://www.w3.org/1999/xlink" x="0px" y="0px"
	 viewBox="0 0 512 512" style="enable-background:new 0 0 512 512;" xml:space="preserve">
<g>
	<path style="fill:#4482C3;" d="M256,0.002c-141.391,0-256,114.617-256,256c0,96.556,53.486,180.595,132.414,224.203v-65.306
		c0-45.55,24.717-85.239,61.396-106.673c17.929,11.591,39.247,18.397,62.19,18.397s44.262-6.806,62.19-18.397
		c36.679,21.433,61.396,61.122,61.396,106.673v65.306C458.514,436.597,512,352.558,512,256.002C512,114.62,397.391,0.002,256,0.002"
		/>
	<g>
		<path style="fill:#FFFFFF;" d="M335.448,194.209c0,43.882-35.566,79.448-79.448,79.448s-79.448-35.566-79.448-79.448
			s35.566-79.448,79.448-79.448S335.448,150.327,335.448,194.209"/>
		<path style="fill:#FFFFFF;" d="M318.189,308.222c-17.929,11.591-39.247,18.397-62.19,18.397c-22.943,0-44.262-6.806-62.19-18.397
			c-36.679,21.433-61.396,61.122-61.396,106.673v65.315c36.643,20.242,78.76,31.788,123.586,31.788s86.943-11.546,123.586-31.788
			v-65.315C379.585,369.344,354.868,329.655,318.189,308.222"/>
	</g>
	<path style="fill:#336292;" d="M256,0.002c-4.44,0-8.854,0.115-13.241,0.335c135.23,6.894,242.759,118.722,242.759,255.665
		c0,85.327-41.746,160.892-105.931,207.404v16.799C458.514,436.597,512,352.558,512,256.002C512,114.62,397.391,0.002,256,0.002"/>
	<path style="fill:#699BCF;" d="M132.414,463.407C68.228,416.886,26.483,341.322,26.483,256.003
		c0-136.942,107.529-248.77,242.759-255.665C264.854,0.118,260.44,0.003,256,0.003c-141.391,0-256,114.617-256,256
		c0,96.556,53.486,180.595,132.414,224.203V463.407z"/>
</g>
<g>
</g>
<g>
</g>
<g>
</g>
<g>
</g>
<g>
</g>
<g>
</g>
<g>
</g>
<g>
</g>
<g>
</g>
<g>
</g>
<g>
</g>
<g>
</g>
<g>
</g>
<g>
</g>
<g>
</g>
</svg>
