<svg enable-background="new 0 0 32 32" height="512" viewBox="0 0 32 32" width="512" xmlns="http://www.w3.org/2000/svg"><path d="m26 32h-20c-3.314 0-6-2.686-6-6v-20c0-3.314 2.686-6 6-6h20c3.314 0 6 2.686 6 6v20c0 3.314-2.686 6-6 6z" fill="#e3f8fa"/><path d="m14.667 16.357c0-.785.5-1.483 1.243-1.736l3.5-1.19c.188-.064.387-.098.59-.098.202 0 .402.034.594.1l2.072.705v-4.471c.001-.921-.745-1.667-1.666-1.667h-11.333c-.921 0-1.667.746-1.667 1.667v6c0 .92.746 1.667 1.667 1.667h5zm-5.334-6.71 6 2.8 6-2.8v1.107l-5.647 2.633c-.113.053-.233.08-.353.08s-.24-.027-.353-.08l-5.647-2.633z" fill="#26c6da"/><path d="m23.661 15.884-3.5-1.19c-.104-.036-.217-.036-.322 0l-3.5 1.19c-.203.069-.339.259-.339.473v2.679c0 3.27 3.649 4.858 3.805 4.925.062.026.129.039.195.039s.133-.013.195-.04c.156-.066 3.805-1.655 3.805-4.924v-2.679c0-.214-.136-.404-.339-.473zm-1.294 2.349-2 2.667c-.116.155-.293.251-.486.265-.016.001-.032.002-.048.002-.176 0-.346-.07-.471-.195l-1.333-1.333c-.26-.26-.26-.682 0-.943s.682-.26.943 0l.79.79 1.539-2.052c.221-.294.639-.355.933-.133.294.22.354.638.133.932z" fill="#8ce1eb"/></svg>