<svg id="bold" height="512" viewBox="0 0 32 32" width="512" xmlns="http://www.w3.org/2000/svg"><path d="m26 32h-20c-3.314 0-6-2.686-6-6v-20c0-3.314 2.686-6 6-6h20c3.314 0 6 2.686 6 6v20c0 3.314-2.686 6-6 6z" fill="#f5e6fe"/><g fill="#d9a4fc"><path d="m16 17.333c-1.838 0-3.333-1.495-3.333-3.333s1.495-3.333 3.333-3.333 3.333 1.495 3.333 3.333-1.495 3.333-3.333 3.333zm0-5.333c-1.103 0-2 .897-2 2s.897 2 2 2 2-.897 2-2-.897-2-2-2z"/><path d="m16 21.333c-.368 0-.667-.299-.667-.667v-3.833c0-.368.299-.667.667-.667s.667.299.667.667v3.833c0 .369-.299.667-.667.667z"/><path d="m18 19.667h-4c-.368 0-.667-.299-.667-.667s.299-.667.667-.667h4c.368 0 .667.299.667.667s-.299.667-.667.667z"/></g><path d="m22 24h-12c-1.103 0-2-.897-2-2v-12c0-1.103.897-2 2-2h12c1.103 0 2 .897 2 2v12c0 1.103-.897 2-2 2zm-12-14.667c-.368 0-.667.299-.667.667v12c0 .368.299.667.667.667h12c.368 0 .667-.299.667-.667v-12c0-.368-.299-.667-.667-.667z" fill="#be63f9"/></svg>