<svg enable-background="new 0 0 32 32" height="512" viewBox="0 0 32 32" width="512" xmlns="http://www.w3.org/2000/svg"><path d="m26 32h-20c-3.314 0-6-2.686-6-6v-20c0-3.314 2.686-6 6-6h20c3.314 0 6 2.686 6 6v20c0 3.314-2.686 6-6 6z" fill="#e3f8fa"/><path d="m16 8c-4.411 0-8 3.589-8 8s3.589 8 8 8 8-3.589 8-8-3.589-8-8-8zm4.667 11.611c0 .295-.119.568-.337.769-.2.185-.464.286-.737.286-.028 0-.056-.001-.085-.003-4.345-.337-7.858-3.848-8.172-8.169-.021-.297.081-.592.282-.81.2-.216.473-.337.768-.339l1.742-.013c.491 0 .913.329 1.032.799l.364 1.444c.104.414-.05.847-.393 1.103l-.543.404c.551.942 1.349 1.743 2.296 2.307l.423-.56c.257-.34.69-.492 1.103-.39l1.455.361c.473.118.804.539.804 1.025v1.786z" fill="#26c6da"/></svg>