<svg id="Layer_1" enable-background="new 0 0 480 480" height="512" viewBox="0 0 480 480" width="512" xmlns="http://www.w3.org/2000/svg"><path d="m472 268.5v44c0 13.24-10.74 23.99-23.98 24 0 0-1.09 0-3.02 0v103c0 17.67-14.33 32-32 32h-373c-17.67 0-32-14.33-32-32v-298c0-17.67 14.33-32 32-32h33v-77c0-13.25 10.75-24 24-24h135c10.03 0 18.63 6.16 22.21 14.91 41.777 12.025 83.085 23.914 124.13 35.73 12.73 3.67 20.09 16.97 16.42 29.71l-5.95 20.65h24.19c17.67 0 32 14.33 32 32v103h3c13.25 0 24 10.75 24 24z" fill="#b9dcff"/><path d="m256 109.5h-183v-77c0-13.25 10.75-24 24-24h135c10.03 0 18.63 6.16 22.21 14.91 2.439 5.908 1.79 1.83 1.79 86.09z" fill="#b9dcff"/><path d="m394.76 88.85-5.95 20.65h-132.81c0-84.215.651-80.178-1.79-86.09 41.777 12.025 83.085 23.914 124.13 35.73 12.73 3.67 20.09 16.97 16.42 29.71z" fill="#e8f3ff"/><path d="m472 268.5v44c0 13.24-10.74 23.99-23.98 24-11.876 0-70.369 0-77.02 0-13.25 0-24-10.75-24-24v-44c0-13.25 10.75-24 24-24h77c13.25 0 24 10.75 24 24z" fill="#d1e7ff"/><path d="m378.34 59.14c12.73 3.67 20.09 16.97 16.42 29.71l-5.95 20.65h-30.75c-16.249-15.117-17.482-40.386-2.89-57.03z" fill="#d1e7ff"/><path d="m448.099 274.5h-33c-21.042 0-38.099 17.058-38.099 38.099 0 19.249-28.974 20.383-29.968 1.16-.052-1-.032-46.204-.032-45.26 0-13.255 10.745-24 24-24h77c20.686.001 19.613 30.001.099 30.001z" fill="#e8f3ff"/><path d="m445 141.5c0 15.464-12.536 28-28 28h-75c-151.326 0-274 122.674-274 274 0 15.464-12.536 28-28 28-17.673 0-32-14.327-32-32v-298c0-17.673 14.327-32 32-32h373c17.673 0 32 14.327 32 32z" fill="#d1e7ff"/><path d="m237.35 48.5h-100.35c-13.255 0-24 10.745-24 24v37h-40v-77c0-13.255 10.745-24 24-24h135c9.699 0 18.509 5.809 22.278 15.075 4.846 11.914-4.066 24.925-16.928 24.925z" fill="#d1e7ff"/><path d="m124 8.5h43v101h-43z" fill="#a2d0ff"/><path d="m167 8.5v40h-30c-4.79 0-9.25 1.41-13 3.84v-43.84z" fill="#b9dcff"/><path d="m276.75 109.5h-20.75c0-84.215.651-80.178-1.79-86.09l22.39 6.44c.214 1.865.15-3.615.15 79.65z" fill="#d1e7ff"/><path d="m453 236.893v-95.393c0-22.056-17.944-40-40-40h-13.558l3.005-10.441c4.894-16.995-4.901-34.71-21.898-39.604l-90.771-26.13c-4.247-1.222-8.679 1.229-9.9 5.475-1.223 4.246 1.229 8.678 5.475 9.901l57.064 16.427c-7.059 13.752-7.317 30.155-.177 44.372h-167.24v-63c0-4.418-3.582-8-8-8s-8 3.582-8 8v63h-27v-63c0-4.418-3.582-8-8-8s-8 3.582-8 8v63h-35v-69c0-8.822 7.178-16 16-16h135c8.822 0 16 7.178 16 16v44c0 4.418 3.582 8 8 8s8-3.582 8-8v-44c0-17.645-14.355-32-32-32h-135c-17.645 0-32 14.355-32 32v69h-25c-22.056 0-40 17.944-40 40v298c0 22.056 17.944 40 40 40h373c22.056 0 40-17.944 40-40v-58.5c0-4.418-3.582-8-8-8s-8 3.582-8 8v58.5c0 13.233-10.767 24-24 24h-373c-13.233 0-24-10.767-24-24v-298c0-13.233 10.767-24 24-24h373c13.233 0 24 10.767 24 24v95h-66c-17.645 0-32 14.355-32 32v44c0 17.645 14.355 32 32 32h77.021c17.568 0 31.979-14.307 31.979-32v-44c0-15.944-11.722-29.199-27-31.607zm-94.77-175.212 17.893 5.151c8.499 2.447 13.394 11.303 10.949 19.801l-4.28 14.867h-21.384c-10.102-11.236-11.038-27.576-3.178-39.819zm105.77 250.819c0 8.822-7.178 16-16 16h-77c-8.822 0-16-7.178-16-16v-44c0-8.822 7.178-16 16-16h77c8.822 0 16 7.178 16 16zm-63-22c0 4.418-3.582 8-8 8h-12c-4.418 0-8-3.582-8-8s3.582-8 8-8h12c4.418 0 8 3.582 8 8z" fill="#2e58ff"/></svg>