<svg height="512pt" viewBox="0 0 512 512" width="512pt" xmlns="http://www.w3.org/2000/svg"><path d="m512 256c0 58.222656-19.433594 111.910156-52.183594 154.917969-20.363281 26.746093-45.871094 49.371093-75.054687 66.390625-5.921875 3.449218-11.996094 6.675781-18.199219 9.65625-33.46875 16.039062-70.960938 25.035156-110.5625 25.035156s-77.09375-8.996094-110.5625-25.035156c-6.214844-2.988282-12.285156-6.207032-18.210938-9.664063-19.046874-11.109375-36.53125-24.609375-52.046874-40.105469-8.242188-8.210937-15.933594-17-22.996094-26.277343-3.597656-4.714844-7.023438-9.5625-10.28125-14.515625-26.488282-40.320313-41.902344-88.566406-41.902344-140.402344 0-58.902344 19.894531-113.164062 53.332031-156.421875 26.539063-34.34375 61.617188-61.753906 102.054688-79.046875 30.886719-13.21875 64.886719-20.53125 100.613281-20.53125s69.726562 7.3125 100.613281 20.53125c40.4375 17.292969 75.515625 44.703125 102.054688 79.046875 33.4375 43.257813 53.332031 97.519531 53.332031 156.421875zm0 0" fill="#80ceed"/><path d="m58.917969 158.09375c-9.398438 0-17.019531-7.617188-17.019531-17.019531v-42.210938c0-9.402343 7.621093-17.023437 17.019531-17.023437 9.402343 0 17.023437 7.621094 17.023437 17.023437v42.210938c-.003906 9.402343-7.621094 17.019531-17.023437 17.019531zm0 0" fill="#ffe96e"/><path d="m75.941406 389.925781v42.203125c0 1.765625-.269531 3.46875-.761718 5.066406-8.242188-8.210937-15.933594-17-22.996094-26.277343-3.597656-4.714844-7.023438-9.5625-10.28125-14.515625v-6.476563c0-9.40625 7.617187-17.023437 17.019531-17.023437 4.691406 0 8.953125 1.902344 12.039063 4.984375 3.082031 3.082031 4.980468 7.335937 4.980468 12.039062zm0 0" fill="#ffe96e"/><path d="m459.816406 410.917969c-46.757812 61.429687-120.652344 101.082031-203.816406 101.082031s-157.058594-39.652344-203.816406-101.082031c-5.988282-103.78125-5.601563-207.558594 1.148437-311.339844 1.503907-23.164063 3.332031-46.339844 5.476563-69.507813 32.191406-4.210937 64.386718-7.386718 96.578125-9.539062 67.070312-4.472656 134.144531-4.472656 201.226562 0 32.191407 2.152344 64.386719 5.328125 96.578125 9.539062 2.144532 23.167969 3.972656 46.34375 5.476563 69.507813 6.75 103.78125 7.136719 207.558594 1.148437 311.339844zm0 0" fill="#742e75"/><path d="m437.582031 431.40625c-1.222656-.09375-2.464843-.15625-3.710937-.15625-26.121094 0-47.488282 20.355469-49.109375 46.058594-5.921875 3.449218-11.996094 6.675781-18.199219 9.65625-36.929688 2.746094-73.898438 4.136718-110.5625 4.136718-36.675781 0-73.632812-1.390624-110.5625-4.136718-6.214844-2.988282-12.285156-6.207032-18.210938-9.664063-1.621093-25.707031-22.988281-46.050781-49.097656-46.050781-1.253906 0-2.488281.0625-3.722656.15625-7.324219-110.945312-7.324219-222.6875 0-333.636719 1.234375.09375 2.46875.160157 3.722656.160157 27.175782 0 49.203125-22.027344 49.203125-49.207032 0-1.703125-.085937-3.382812-.25-5.035156 43.015625-3.71875 86.160157-5.613281 128.917969-5.613281 42.746094 0 85.890625 1.894531 128.917969 5.613281-.164063 1.652344-.257813 3.332031-.257813 5.035156 0 27.179688 22.035156 49.207032 49.210938 49.207032 1.246094 0 2.488281-.066407 3.710937-.160157 7.324219 110.949219 7.324219 222.691407 0 333.636719zm0 0" fill="#884389"/><path d="m352.34375 225.238281h-59.320312v-73.40625h-74.050782v73.40625h-59.324218v74.054688h59.324218v108.652343h74.050782v-108.652343h59.320312zm0 0" fill="#ffe96e"/><path d="m168.53125 166.265625-20.421875-24.511719-20.425781 24.511719v-152.507813h40.847656zm0 0" fill="#f74570"/></svg>