<svg xmlns="http://www.w3.org/2000/svg" width="34.545" height="31.666" viewBox="0 0 34.545 31.666">
    <defs>
        <style>
            .cls-1{fill:#0074e4}
        </style>
    </defs>
    <g id="feedback" transform="translate(0 -21.33)">
        <g id="Group_3636" data-name="Group 3636" transform="translate(0 21.33)">
            <g id="Group_3635" data-name="Group 3635">
                <path id="Path_13409" d="M31.222 34.092a.719.719 0 0 0-.784.156l-4.444 4.442a2.15 2.15 0 0 1-1.1.59l-3.6.72a2.158 2.158 0 0 1-2.54-2.54l.635-3.175H7.917a.72.72 0 1 1 0-1.439H20c.025-.028.04-.063.066-.089l2.79-2.79H7.917a.72.72 0 1 1 0-1.439H23.75a.7.7 0 0 1 .4.14L28.824 24a4.158 4.158 0 0 1 1.417-.922.72.72 0 0 0 .129-1.269 2.874 2.874 0 0 0-1.583-.476H2.879A2.882 2.882 0 0 0 0 24.209v28.068a.72.72 0 0 0 .444.665A.711.711 0 0 0 .72 53a.719.719 0 0 0 .509-.211L8.215 45.8h20.573a2.882 2.882 0 0 0 2.879-2.879v-8.164a.72.72 0 0 0-.445-.665zM16.553 38.6H7.917a.72.72 0 0 1 0-1.439h8.636a.72.72 0 0 1 0 1.439z" class="cls-1" data-name="Path 13409" transform="translate(0 -21.33)"/>
                <path id="Path_13410" d="M310.3 64a2.772 2.772 0 0 0-1.948.807l-8.76 8.759a.717.717 0 0 0-.2.368l-.72 3.6a.72.72 0 0 0 .706.861.735.735 0 0 0 .141-.014l3.6-.72a.715.715 0 0 0 .368-.2l8.761-8.76A2.755 2.755 0 0 0 310.3 64zm-1.141 5.757L307.3 67.9l1.018-1.018 1.861 1.861z" class="cls-1" data-name="Path 13410" transform="translate(-278.512 -61.121)"/>
            </g>
        </g>
    </g>
</svg>
