<svg id="Capa_1" enable-background="new 0 0 512 512" height="512" viewBox="0 0 512 512" width="512" xmlns="http://www.w3.org/2000/svg"><g><g><g><g><g><g><g><circle cx="256" cy="256" fill="#4a7aff" r="256"/></g></g></g></g></g></g><path d="m512 256c0-16.342-1.531-32.327-4.458-47.818l-74.963-74.963-126.696 89.904-96.137-96.137-140.595 169.086 56.563 56.563-46.292 26.146 128.761 128.761c15.49 2.927 31.475 4.458 47.817 4.458 141.385 0 256-114.615 256-256z" fill="#0053bf"/><g><path d="m79.421 133.219h353.158v245.562h-353.158z" fill="#ffce00"/></g><g><path d="m79.421 256h353.158v122.781h-353.158z" fill="#fdba12"/></g><g><path d="m129.602 126.987h80.145v258.027h-80.145z" fill="#fe6a16"/></g><g><path d="m129.602 255.986h80.145v129.027h-80.145z" fill="#f24500"/></g><g><path d="m214.991 70.087h80.145v371.826h-80.145z" fill="#fe6a16" transform="matrix(0 1 -1 0 511.064 .936)"/></g><g><path d="m69.151 256h371.826v40.072h-371.826z" fill="#f24500"/></g><g><path d="m243.529 256-22.62 16.65 8.514 26.769-28.099.16-8.824 26.678-22.826-16.402-22.826 16.402-8.825-26.679-28.099-.159 8.515-26.769-22.62-16.65 22.62-16.65-8.514-26.769 28.099-.16 8.824-26.678 22.826 16.402 22.826-16.402 8.825 26.678 28.099.16-8.515 26.769z" fill="#f24500"/></g><g><path d="m95.819 256 22.62 16.65-8.515 26.769 28.099.16 8.825 26.678 22.826-16.402 22.826 16.402 8.824-26.678 28.099-.16-8.514-26.769 22.62-16.65z" fill="#d13400"/></g><g><path d="m297.927 323.223h95.783v30h-95.783z" fill="#636978"/></g></g></svg>