<svg id="Capa_1" enable-background="new 0 0 512 512" height="512" viewBox="0 0 512 512" width="512" xmlns="http://www.w3.org/2000/svg"><g><path d="m512 256c0 141.385-114.615 256-256 256-48.902 0-94.601-13.712-133.463-37.5-3.113-1.905.066-10.122-2.957-12.155-35.2-23.669-60.478-55.22-80.329-92.962-1.749-3.325-13.395-1.075-15-4.484-15.556-33.045-24.251-69.957-24.251-108.899 0-141.385 114.615-256 256-256s256 114.615 256 256z" fill="#ffb52d"/><path d="m476.804 234.62c0 106.675-86.477 193.152-193.152 193.152s-193.152-86.477-193.152-193.152 86.477-193.152 193.152-193.152 193.152 86.477 193.152 193.152z" fill="#ffc14f"/><path d="m110.993 45h116.257c8.284 0 15 6.716 15 15v390c0 8.284-6.716 15-15 15h-111.205c-5.211 0-10.307-1.651-14.461-4.797-24.797-18.78-46.067-41.973-62.641-68.41-4.695-7.488-7.193-16.145-7.193-24.983v-283.725c19.295-34.938 39.25-36.425 79.243-38.085z" fill="#c8e2fd"/><path d="m242.25 60v238.263c0 47.289-38.336 85.625-85.625 85.625-47.289 0-85.625-38.336-85.625-85.625v-238.263c0-8.284 6.716-15 15-15h141.25c8.284 0 15 6.716 15 15z" fill="#e9f3fe"/><path d="m86 95h-54.25v-35c0-8.284 6.716-15 15-15h39.25c8.284 0 15 6.716 15 15v20c0 8.284-6.716 15-15 15z" fill="#2476ed"/><path d="m242.25 95h-171.25v-35c0-8.284 6.716-15 15-15h141.25c8.284 0 15 6.716 15 15z" fill="#5596fb"/><path d="m119.553 270c0-2.761 2.239-5 5-5h51.447c2.761 0 5 2.239 5 5s-2.239 5-5 5h-51.447c-2.761 0-5-2.239-5-5zm71.947 45h-109c-2.761 0-5 2.239-5 5s2.239 5 5 5h109c2.761 0 5-2.239 5-5s-2.239-5-5-5zm-22.5 30c2.761 0 5-2.239 5-5s-2.239-5-5-5h-63c-2.761 0-5 2.239-5 5s2.239 5 5 5zm0 30h-63c-2.761 0-5 2.239-5 5s2.239 5 5 5h63c2.761 0 5-2.239 5-5s-2.239-5-5-5zm9.5-20h-83c-2.761 0-5 2.239-5 5s2.239 5 5 5h83c2.761 0 5-2.239 5-5s-2.239-5-5-5z" fill="#97bffd"/><path d="m81 65c0 2.761-2.239 5-5 5h-19.5c-2.761 0-5-2.239-5-5s2.239-5 5-5h19.5c2.761 0 5 2.239 5 5zm-5 15h-19.5c-2.761 0-5 2.239-5 5s2.239 5 5 5h19.5c2.761 0 5-2.239 5-5s-2.239-5-5-5zm143.125-10h.25c2.692 0 4.875-2.183 4.875-4.875s-2.183-4.875-4.875-4.875h-.25c-2.692 0-4.875 2.183-4.875 4.875s2.183 4.875 4.875 4.875zm-19.75-9.75h-.25c-2.692 0-4.875 2.183-4.875 4.875s2.183 4.875 4.875 4.875h.25c2.692 0 4.875-2.183 4.875-4.875s-2.182-4.875-4.875-4.875zm20 18h-.25c-2.692 0-4.875 2.183-4.875 4.875s2.183 4.875 4.875 4.875h.25c2.692 0 4.875-2.183 4.875-4.875s-2.182-4.875-4.875-4.875zm-20 0h-.25c-2.692 0-4.875 2.183-4.875 4.875s2.183 4.875 4.875 4.875h.25c2.692 0 4.875-2.183 4.875-4.875s-2.182-4.875-4.875-4.875z" fill="#0956c6"/><path d="m136 275h-69c-2.761 0-5-2.239-5-5 0-2.761 2.239-5 5-5h69c2.761 0 5 2.239 5 5 0 2.761-2.239 5-5 5z" fill="#1ab975"/><path d="m167 435h-59c-5.523 0-10-4.477-10-10 0-5.523 4.477-10 10-10h59c5.523 0 10 4.477 10 10 0 5.523-4.477 10-10 10zm24-185c-11.046 0-20 8.954-20 20s8.954 20 20 20 20-8.954 20-20-8.954-20-20-20z" fill="#1ed688"/><path d="m214.214 258.061-20.205 20.161c-.938.937-2.21 1.461-3.531 1.461-.07 0-.141-.001-.212-.004-1.396-.059-2.704-.7-3.606-1.767l-7.576-8.96c-1.783-2.109-1.519-5.263.59-7.046 2.111-1.784 5.264-1.519 7.047.59l4.07 4.814 16.361-16.325c1.955-1.951 5.121-1.947 7.07.008 1.951 1.952 1.947 5.118-.008 7.068z" fill="#a1ffbc"/><path d="m249.75 60v392c0 12.407-10.093 22.5-22.5 22.5h-104.713c-7.56-4.628-14.861-9.636-21.876-15h126.59c4.136 0 7.5-3.364 7.5-7.5v-392c0-4.136-3.364-7.5-7.5-7.5h-70.251v2.5c0 11.046-8.954 20-20 20s-20-8.954-20-20v-2.5h-70.25c-4.136 0-7.5 3.364-7.5 7.5v332.281c-5.533-8.782-10.548-17.924-15-27.382v-304.899c0-12.407 10.093-22.5 22.5-22.5h180.5c12.407 0 22.5 10.093 22.5 22.5z" fill="#0a3575"/><path d="m24.25 262.5v-116.064c0-4.142 3.358-7.5 7.5-7.5 4.142 0 7.5 3.358 7.5 7.5v116.064c0 4.142-3.358 7.5-7.5 7.5-4.142 0-7.5-3.358-7.5-7.5zm218-44.606c4.142 0 7.5-3.358 7.5-7.5v-116.064c0-4.142-3.358-7.5-7.5-7.5-4.142 0-7.5 3.358-7.5 7.5v116.064c0 4.142 3.358 7.5 7.5 7.5zm-105.25-171.139c-4.694 0-8.5 3.806-8.5 8.5s3.806 8.5 8.5 8.5 8.5-3.806 8.5-8.5-3.806-8.5-8.5-8.5z" fill="#0956c6"/><path d="m345.766 293.888v112c0 5.523-4.477 10-10 10h-37.766c-5.523 0-10-4.477-10-10v-38.716l-17.284-17.284 17.284-17.284v-38.716c0-5.523 4.477-10 10-10h37.766c5.523 0 10 4.477 10 10z" fill="#2476ed"/><path d="m321.284 405.888v-112c0-5.523 4.477-10 10-10h170.716c5.523 0 10 4.477 10 10v112c0 5.523-4.477 10-10 10h-170.716c-5.523 0-10-4.477-10-10z" fill="#5596fb"/><path d="m409.369 349.888c0 27.614-22.386 50-50 50s-50-22.386-50-50 22.386-50 50-50 50 22.386 50 50z" fill="#ffa90b"/><path d="m407.793 362.387c-.785 3.05-3.6 5.14-6.75 5.14h-.01c-4.541 0-7.922-4.266-6.793-8.664.85-3.313.808-6.378.667-9.988-.744-19.001-16.139-34.319-35.154-34.518-5.852-.061-11.386.808-16.29 3.227-4.681 2.309-10.159-1.021-10.159-6.24 0-2.671 1.52-5.107 3.913-6.292 7.096-3.512 15.145-5.401 23.654-5.14 27.979.856 47.362 20.707 48.473 48.445.197 4.854-.401 9.564-1.551 14.03z" fill="#ffc14f"/><path d="m395.369 349.888c0 19.882-16.118 36-36 36s-36-16.118-36-36 16.118-36 36-36 36 16.118 36 36z" fill="#ffcd71"/><path d="m395.369 349.888c0 4.207-.722 8.245-2.048 11.998-5.835 5.577-13.744 9.002-22.452 9.002-17.949 0-32.5-14.551-32.5-32.5 0-8.709 3.425-16.617 9.002-22.452 3.753-1.326 7.791-2.048 11.998-2.048 19.882 0 36 16.118 36 36z" fill="#ffe89c"/><path d="m364.369 331.888v36c0 2.761-2.239 5-5 5s-5-2.239-5-5v-36c0-2.761 2.239-5 5-5s5 2.239 5 5z" fill="#ffa90b"/><path d="m500 318.888c0 2.761-2.239 5-5 5h-69.5c-2.761 0-5-2.239-5-5s2.239-5 5-5h69.5c2.761 0 5 2.239 5 5zm-74.5 25h38.769c2.761 0 5-2.239 5-5s-2.239-5-5-5h-38.769c-2.761 0-5 2.239-5 5s2.239 5 5 5zm38.769 30h-38.769c-2.761 0-5 2.239-5 5s2.239 5 5 5h38.769c2.761 0 5-2.239 5-5s-2.239-5-5-5zm13.361-20h-52.13c-2.761 0-5 2.239-5 5s2.239 5 5 5h52.13c2.761 0 5-2.239 5-5s-2.238-5-5-5z" fill="#e9f3fe"/><path d="m347.809 141.388v112c0 5.523-4.477 10-10 10h-39.809c-5.523 0-10-4.477-10-10v-38.716l-17.284-17.284 17.284-17.284v-38.716c0-5.523 4.477-10 10-10h39.809c5.522 0 10 4.477 10 10z" fill="#f44545"/><path d="m321.284 253.388v-112c0-5.523 4.477-10 10-10h170.716c5.523 0 10 4.477 10 10v112c0 5.523-4.477 10-10 10h-170.716c-5.523 0-10-4.477-10-10z" fill="#fb5858"/><path d="m362.879 83.125c0 2.761-2.238 5-5 5h-8.333v8.333c0 2.761-2.238 5-5 5s-5-2.239-5-5v-8.333h-8.334c-2.762 0-5-2.239-5-5s2.238-5 5-5h8.334v-8.333c0-2.761 2.238-5 5-5s5 2.239 5 5v8.333h8.333c2.762 0 5 2.239 5 5zm137.121 83.263c0-2.761-2.239-5-5-5h-69.5c-2.761 0-5 2.239-5 5 0 2.761 2.239 5 5 5h69.5c2.761 0 5-2.238 5-5zm-30.731 20c0-2.761-2.239-5-5-5h-38.769c-2.761 0-5 2.239-5 5 0 2.761 2.239 5 5 5h38.769c2.761 0 5-2.238 5-5zm0 40c0-2.761-2.239-5-5-5h-38.769c-2.761 0-5 2.239-5 5 0 2.761 2.239 5 5 5h38.769c2.761 0 5-2.238 5-5zm13.361-20c0-2.761-2.239-5-5-5h-52.13c-2.761 0-5 2.239-5 5 0 2.761 2.239 5 5 5h52.13c2.762 0 5-2.238 5-5z" fill="#fff5f5"/><path d="m438.684 118.15c-5.738 11.268-16.794 22.27-24.262 22.895-.21.019-.424.028-.642.028-.217 0-.431-.009-.642-.028-7.468-.625-18.525-11.627-24.262-22.895-6.383-12.535-3.768-20.653 3.518-22.696 6.017-1.687 13.337 1.297 19.299 9.449.994 1.359 3.181 1.359 4.175 0 5.962-8.152 13.282-11.136 19.299-9.449 7.284 2.043 9.9 10.161 3.517 22.696z" fill="#d63030"/><path d="m423.479 136.798c-3.207 2.448-6.366 4.022-9.058 4.247-.21.019-.424.028-.642.028-.217 0-.431-.009-.642-.028-7.468-.625-18.525-11.627-24.262-22.895-6.383-12.535-3.768-20.653 3.518-22.696.198-.055.397-.106.598-.151.046 4.074 1.385 9.039 4.31 14.783 6.166 12.11 17.489 23.962 26.178 26.712z" fill="#c42d2d"/><path d="m408.59 41.667c0 2.761-2.238 5-5 5h-8.333v8.333c0 2.761-2.238 5-5 5s-5-2.239-5-5v-8.333h-8.334c-2.762 0-5-2.239-5-5s2.238-5 5-5h8.334v-8.333c0-2.761 2.238-5 5-5s5 2.239 5 5v8.333h8.333c2.761 0 5 2.238 5 5z" fill="#fb5858"/><path d="m201.744 175.184c-14.917 29.295-43.66 57.897-63.076 59.521-.547.05-1.103.074-1.668.073-.565.001-1.122-.023-1.668-.073-19.416-1.624-48.159-30.227-63.076-59.521-16.594-32.588-9.795-53.692 9.145-59.003 15.642-4.386 34.672 3.372 50.172 24.564 2.584 3.533 8.269 3.533 10.853 0 15.5-21.192 34.531-28.95 50.172-24.564 18.94 5.311 25.74 26.415 9.146 59.003z" fill="#fb5858"/><path d="m162.215 223.663c-8.338 6.365-16.549 10.456-23.547 11.042-.547.05-1.103.074-1.668.073-.565.001-1.122-.023-1.668-.073-19.416-1.624-48.159-30.227-63.076-59.521-16.594-32.588-9.795-53.692 9.145-59.003.514-.144 1.032-.275 1.554-.393.121 10.592 3.6 23.5 11.204 38.432 16.031 31.482 45.467 62.293 68.056 69.443z" fill="#f44545"/><path d="m398.591 197.567c-9.037 17.747-26.45 35.074-38.212 36.058-.331.03-.668.045-1.01.044-.343.001-.679-.014-1.011-.044-11.762-.984-29.175-18.312-38.212-36.058-10.053-19.742-5.934-32.527 5.54-35.745 9.476-2.657 21.005 2.043 30.395 14.881 1.565 2.14 5.009 2.14 6.575 0 9.39-12.838 20.919-17.538 30.395-14.881 11.474 3.218 15.593 16.003 5.54 35.745z" fill="#ff94d2"/><path d="m374.645 226.936c-5.051 3.856-10.025 6.334-14.265 6.689-.331.03-.668.045-1.01.044-.343.001-.679-.014-1.011-.044-11.762-.984-29.175-18.312-38.212-36.058-10.053-19.742-5.934-32.527 5.54-35.745.312-.087.625-.167.941-.238.073 6.417 2.181 14.236 6.787 23.282 9.712 19.073 27.544 37.739 41.23 42.07z" fill="#ff72c3"/></g></svg>