<svg xmlns="http://www.w3.org/2000/svg" width="35.724" height="24.979" viewBox="0 0 35.724 24.979">
    <defs>
        <style>
            .cls-1{fill:#0074e4}
        </style>
    </defs>
    <g id="inbox" transform="translate(0 -69.376)">
        <g id="Group_3633" data-name="Group 3633" transform="translate(0 69.376)">
            <path id="Path_13407" d="M35.486 79.566l-3.925-7.93a4.009 4.009 0 0 0-3.648-2.26H7.771a3.983 3.983 0 0 0-3.648 2.26L.2 79.526a1.778 1.778 0 0 0-.2.753v10.666a3.41 3.41 0 0 0 3.41 3.41h28.9a3.41 3.41 0 0 0 3.41-3.41V80.319a2.1 2.1 0 0 0-.234-.753zm-10.745-.952a1.73 1.73 0 0 0-1.665 1.348c-.04.159-.952 4.4-5.273 4.4-4.2 0-5.154-3.925-5.273-4.4a1.666 1.666 0 0 0-1.665-1.348H4.441l2.736-5.472a.781.781 0 0 1 .595-.4h20.141a.628.628 0 0 1 .595.4l2.7 5.472z" class="cls-1" data-name="Path 13407" transform="translate(0 -69.376)"/>
        </g>
    </g>
</svg>
