<svg xmlns="http://www.w3.org/2000/svg" width="38.474" height="38.474" viewBox="0 0 38.474 38.474">
    <defs>
        <style>
            .cls-1{fill:#0074e4}.cls-2{clip-path:url(#clip-path)}.cls-3{fill:none;stroke:#fff;stroke-width:1.2px}
        </style>
        <clipPath id="clip-path">
            <circle id="Oval" cx="19.237" cy="19.237" r="19.237" class="cls-1"/>
        </clipPath>
    </defs>
    <g id="Group_3660" data-name="Group 3660" transform="translate(-260.081 -816)">
        <circle id="Oval-2" cx="19.237" cy="19.237" r="19.237" class="cls-1" data-name="Oval" transform="translate(260.081 816)"/>
        <path id="Path_2586" d="M19.592-1.332H3.123A3.126 3.126 0 0 0 0 1.791V11.87a3.126 3.126 0 0 0 3.112 3.123v4.574l6.573-4.574h9.907a3.126 3.126 0 0 0 3.123-3.123V1.791a3.126 3.126 0 0 0-3.123-3.123zm1.792 13.2a1.794 1.794 0 0 1-1.792 1.792H9.267l-4.824 3.359v-3.358h-1.32a1.794 1.794 0 0 1-1.792-1.791V1.791A1.794 1.794 0 0 1 3.123 0h16.469a1.794 1.794 0 0 1 1.792 1.792zm0 0" class="cls-3" data-name="Path 2586" transform="translate(268.518 827.162)"/>
    </g>
</svg>
