<svg enable-background="new 0 0 36 36" height="512" viewBox="0 0 36 36" width="512" xmlns="http://www.w3.org/2000/svg"><g id="BG"><g><path d="m27.417 3.914c-6.915.129-11.732-3.365-15.064-3.302s-10.296 2.109-10.009 17.44 9.744 17.404 13.41 17.336c17.163-.321 23.911-31.703 11.663-31.474z" fill="#efefef"/></g></g><g id="effect"><g><g><path d="m8.387 5.227h2v1h-2z" fill="#a4afc1" transform="matrix(.707 -.707 .707 .707 -1.3 8.315)"/></g><g><path d="m4.32 9.293h2v1h-2z" fill="#a4afc1" transform="matrix(.707 -.707 .707 .707 -5.366 6.63)"/></g><g><path d="m4.82 4.55h1v2h-1z" fill="#a4afc1" transform="matrix(.707 -.707 .707 .707 -2.366 5.388)"/></g></g><g><path d="m29.25 30.5c-.827 0-1.5-.673-1.5-1.5s.673-1.5 1.5-1.5 1.5.673 1.5 1.5-.673 1.5-1.5 1.5zm0-2c-.275 0-.5.224-.5.5s.225.5.5.5.5-.224.5-.5-.225-.5-.5-.5z" fill="#a4afc1"/></g></g><g id="color"><g><circle cx="18" cy="18" fill="#f3f3f1" r="11.25"/></g></g><g id="shadow"><g><path d="m9 18c0-5.833 4.44-10.629 10.125-11.193-.37-.037-.745-.057-1.125-.057-6.213 0-11.25 5.037-11.25 11.25s5.037 11.25 11.25 11.25c.38 0 .755-.02 1.125-.057-5.685-.564-10.125-5.36-10.125-11.193z" fill="#d5dbe1"/></g></g><g id="regular"><g><path d="m22.523 25.374c-2.494-2.494-6.553-2.494-9.047 0l-1.061-1.061c3.078-3.079 8.09-3.079 11.168 0z"/></g><g><path d="m13.5 17c-1.379 0-2.5-1.122-2.5-2.5h1.5c0 .551.448 1 1 1s1-.449 1-1h1.5c0 1.378-1.121 2.5-2.5 2.5z"/></g><g><path d="m22.5 17c-1.379 0-2.5-1.122-2.5-2.5h1.5c0 .551.448 1 1 1s1-.449 1-1h1.5c0 1.378-1.121 2.5-2.5 2.5z"/></g><g><path d="m18 30c-6.617 0-12-5.383-12-12s5.383-12 12-12 12 5.383 12 12-5.383 12-12 12zm0-22.5c-5.79 0-10.5 4.71-10.5 10.5s4.71 10.5 10.5 10.5 10.5-4.71 10.5-10.5-4.71-10.5-10.5-10.5z"/></g></g></svg>