<svg id="Capa_1" enable-background="new 0 0 512 512" height="512" viewBox="0 0 512 512" width="512" xmlns="http://www.w3.org/2000/svg" xmlns:xlink="http://www.w3.org/1999/xlink"><linearGradient id="SVGID_1_" gradientUnits="userSpaceOnUse" x1="256" x2="256" y1="512" y2="0"><stop offset="0" stop-color="#addcff"/><stop offset=".5028" stop-color="#eaf6ff"/><stop offset="1" stop-color="#eaf6ff"/></linearGradient><linearGradient id="SVGID_2_" gradientUnits="userSpaceOnUse" x1="256" x2="256" y1="105" y2="406.998"><stop offset="0" stop-color="#5558ff"/><stop offset="1" stop-color="#00c0ff"/></linearGradient><g><g><circle cx="256" cy="256" fill="url(#SVGID_1_)" r="256"/></g><g><g><path d="m327.057 105h-204.292c-9.812 0-17.765 7.953-17.765 17.765 0 9.81 7.953 17.765 17.765 17.765h204.293c-4.901 0-8.882-3.981-8.882-8.882s3.981-8.882 8.882-8.882c4.91 0 8.882-3.973 8.882-8.882 0-4.911-3.973-8.884-8.883-8.884zm48.09 150.999 29.249-29.249c2.542-2.542 3.305-6.358 1.926-9.68-1.371-3.322-4.615-5.482-8.206-5.482h-44.411v88.823h44.411c3.591 0 6.835-2.16 8.206-5.482 1.379-3.322.616-7.139-1.926-9.68zm-270.147-102.646v226.998c0 14.694 11.953 26.647 26.647 26.647h195.41c4.91 0 8.882-3.973 8.882-8.882v-239.822h-213.174c-6.501 0-12.518-1.881-17.765-4.941zm35.529 58.234c0-4.909 3.973-8.882 8.882-8.882 4.901 0 8.882-3.981 8.882-8.882 0-4.91 3.973-8.882 8.882-8.882h106.588c4.91 0 8.882 3.973 8.882 8.882 0 4.901 3.981 8.882 8.882 8.882 4.91 0 8.882 3.973 8.882 8.882v142.117c0 4.909-3.973 8.882-8.882 8.882-4.901 0-8.882 3.981-8.882 8.882 0 4.91-3.973 8.882-8.882 8.882h-106.587c-4.91 0-8.882-3.973-8.882-8.882 0-4.901-3.981-8.882-8.882-8.882-4.91 0-8.882-3.973-8.882-8.882v-142.117zm34.011 150.999h91.859c2.68-7.564 8.683-13.566 16.247-16.247v-127.387c-7.564-2.68-13.566-8.683-16.247-16.247h-91.859c-2.68 7.564-8.683 13.566-16.247 16.247v127.388c7.565 2.68 13.567 8.683 16.247 16.246zm28.165-106.587h8.882v-8.882c0-4.91 3.973-8.882 8.882-8.882s8.882 3.973 8.882 8.882v8.882h8.882c4.91 0 8.882 3.973 8.882 8.882s-3.973 8.882-8.882 8.882h-8.882v26.647c0 4.91-3.973 8.882-8.882 8.882s-8.882-3.973-8.882-8.882v-26.647h-8.882c-4.91 0-8.882-3.973-8.882-8.882s3.973-8.882 8.882-8.882z" fill="url(#SVGID_2_)"/></g></g></g></svg>