<svg id="Capa_1" enable-background="new 0 0 512 512" height="512" viewBox="0 0 512 512" width="512" xmlns="http://www.w3.org/2000/svg" xmlns:xlink="http://www.w3.org/1999/xlink"><linearGradient id="SVGID_1_" gradientUnits="userSpaceOnUse" x1="256" x2="256" y1="512" y2="0"><stop offset="0" stop-color="#c3ffe8"/><stop offset=".9973" stop-color="#f0fff4"/></linearGradient><linearGradient id="SVGID_2_" gradientUnits="userSpaceOnUse" x1="256" x2="256" y1="407" y2="105"><stop offset="0" stop-color="#9cffac"/><stop offset="1" stop-color="#00b59c"/></linearGradient><g><g><circle cx="256" cy="256" fill="url(#SVGID_1_)" r="256"/></g><g><g><path d="m296.27 158.298h-177.4c-4.903 0-8.87 3.973-8.87 8.882v230.937c0 4.909 3.967 8.882 8.87 8.882h177.4c4.903 0 8.87-3.973 8.87-8.882v-230.936c0-4.91-3.967-8.883-8.87-8.883zm-124.18 71.058h17.74c4.903 0 8.87 3.973 8.87 8.882s-3.967 8.882-8.87 8.882h-17.74c-4.903 0-8.87-3.973-8.87-8.882s3.967-8.882 8.87-8.882zm70.96 124.351h-70.96c-4.903 0-8.87-3.973-8.87-8.882s3.967-8.882 8.87-8.882h70.96c4.903 0 8.87 3.973 8.87 8.882s-3.967 8.882-8.87 8.882zm0-35.529h-70.96c-4.903 0-8.87-3.973-8.87-8.882s3.967-8.882 8.87-8.882h70.96c4.903 0 8.87 3.973 8.87 8.882s-3.967 8.882-8.87 8.882zm0-35.529h-70.96c-4.903 0-8.87-3.973-8.87-8.882s3.967-8.882 8.87-8.882h70.96c4.903 0 8.87 3.973 8.87 8.882s-3.967 8.882-8.87 8.882zm158.412-97.209c-.814-2.212-2.477-4.007-4.608-4.996l-161.081-74.614c-2.148-.997-4.591-1.102-6.791-.278-2.218.815-4.002 2.481-4.99 4.623l-13.945 30.359h86.222c14.673 0 26.61 11.953 26.61 26.647v194.514l78.305-169.463c.989-2.135 1.075-4.581.278-6.792z" fill="url(#SVGID_2_)"/></g></g></g></svg>