<svg id="Capa_1" enable-background="new 0 0 512 512" height="512" viewBox="0 0 512 512" width="512" xmlns="http://www.w3.org/2000/svg" xmlns:xlink="http://www.w3.org/1999/xlink"><linearGradient id="SVGID_1_" gradientUnits="userSpaceOnUse" x1="256" x2="256" y1="512" y2="0"><stop offset="0" stop-color="#ffc8d1"/><stop offset="1" stop-color="#fff6f7"/></linearGradient><linearGradient id="SVGID_2_" gradientUnits="userSpaceOnUse" x1="256" x2="256" y1="122.765" y2="389.235"><stop offset="0" stop-color="#fd3a84"/><stop offset="1" stop-color="#ffa68d"/></linearGradient><g><g><circle cx="256" cy="256" fill="url(#SVGID_1_)" r="256"/></g><g><g><path d="m202.706 229.353c-4.901 0-8.882 3.981-8.882 8.882s3.981 8.882 8.882 8.882 8.882-3.981 8.882-8.882-3.981-8.882-8.882-8.882zm106.588 0c-4.901 0-8.882 3.981-8.882 8.882s3.981 8.882 8.882 8.882 8.882-3.981 8.882-8.882-3.981-8.882-8.882-8.882zm-106.588 53.294c-14.694 0-26.647 11.953-26.647 26.647v29.835c14.666 12.168 32.208 24.495 53.294 36.743v-66.577c0-14.695-11.953-26.648-26.647-26.648zm204.294-68.101c0-51.464-35.113-91.781-79.941-91.781-36.275 0-59.895 19.734-71.059 31.973-11.164-12.239-34.792-31.973-71.059-31.973-44.828 0-79.941 40.318-79.941 91.781 0 24.523 8.795 64.698 53.294 108.487v-13.739c0-24.487 19.925-44.412 44.412-44.412-14.694 0-26.647-11.953-26.647-26.647s11.953-26.647 26.647-26.647 26.647 11.953 26.647 26.647-11.953 26.647-26.647 26.647c24.487 0 44.412 19.925 44.412 44.412v76.314c1.649.875 3.11 1.757 4.797 2.629 1.284.668 2.68.998 4.086.998s2.802-.33 4.086-.998c1.687-.873 3.148-1.754 4.797-2.629v-76.314c0-24.487 19.925-44.412 44.412-44.412-14.694 0-26.647-11.953-26.647-26.647s11.953-26.647 26.647-26.647 26.647 11.953 26.647 26.647-11.953 26.647-26.647 26.647c24.487 0 44.412 19.925 44.412 44.412v13.739c44.497-43.788 53.292-83.964 53.292-108.487zm-97.706 68.101c-14.694 0-26.647 11.953-26.647 26.647v66.577c21.086-12.248 38.628-24.575 53.294-36.743v-29.835c0-14.693-11.953-26.646-26.647-26.646z" fill="url(#SVGID_2_)"/></g></g></g></svg>