<svg id="Capa_1" enable-background="new 0 0 512 512" height="512" viewBox="0 0 512 512" width="512" xmlns="http://www.w3.org/2000/svg" xmlns:xlink="http://www.w3.org/1999/xlink"><linearGradient id="SVGID_1_" gradientUnits="userSpaceOnUse" x1="256" x2="256" y1="512" y2="0"><stop offset="0" stop-color="#c3ffe8"/><stop offset=".9973" stop-color="#f0fff4"/></linearGradient><linearGradient id="SVGID_2_" gradientUnits="userSpaceOnUse" x1="256" x2="256" y1="407" y2="105"><stop offset="0" stop-color="#9cffac"/><stop offset="1" stop-color="#00b59c"/></linearGradient><g><g><circle cx="256" cy="256" fill="url(#SVGID_1_)" r="256"/></g><g><g><path d="m247.76 209.697-.952 5.69 5.107-2.654c2.496-1.318 5.585-1.366 8.171 0l5.107 2.654-.952-5.69c-.467-2.845.467-5.76 2.527-7.79l4.103-4.042-5.678-.868c-2.856-.434-5.315-2.22-6.613-4.805l-2.579-5.17-2.579 5.17c-1.298 2.585-3.757 4.372-6.613 4.805l-5.678.868 4.103 4.042c2.058 2.031 2.993 4.945 2.526 7.79zm-50.843 70.782c17.398 13.289 31.229 30.654 40.093 50.397 4.743 9.993 8.188 21.165 10.248 33.222.744 4.25 4.432 7.373 8.742 7.373s7.998-3.123 8.742-7.373c2.06-12.057 5.505-23.229 10.335-33.396 8.777-19.569 22.608-36.935 39.989-50.206 24.063-18.285 38.431-47.361 38.431-77.79-.001-53.867-43.746-97.706-97.497-97.706s-97.496 43.839-97.496 97.706c0 30.429 14.368 59.505 38.413 77.773zm16.93-91.496c1.039-3.209 3.791-5.534 7.115-6.037l18.661-2.828 8.448-16.915c3.012-6.002 12.845-6.002 15.857 0l8.448 16.915 18.661 2.828c3.324.503 6.076 2.828 7.115 6.037 1.039 3.192.173 6.714-2.216 9.073l-13.451 13.271 3.099 18.667c.554 3.314-.814 6.662-3.531 8.64-2.715 1.987-6.347 2.251-9.296.694l-16.757-8.709-16.757 8.709c-2.96 1.562-6.578 1.301-9.296-.694-2.718-1.978-4.085-5.326-3.531-8.64l3.099-18.667-13.451-13.271c-2.39-2.359-3.255-5.881-2.217-9.073zm139.39 206.983-17.727-71.059c-.987-3.956-4.536-6.731-8.604-6.731h-23.906c-4.556 6.236-8.616 12.809-11.754 19.812-4.259 8.969-7.236 18.649-9.036 29.11-2.25 12.855-13.26 22.137-26.209 22.137s-23.959-9.281-26.209-22.067c-1.783-10.53-4.743-20.141-8.794-28.659-3.253-7.246-7.394-13.978-12.029-20.333h-23.874c-4.068 0-7.617 2.776-8.604 6.731l-17.727 71.059c-.658 2.654-.069 5.465 1.61 7.616s4.258 3.417 6.994 3.417h177.266c2.735 0 5.314-1.267 6.994-3.417 1.678-2.151 2.267-4.961 1.609-7.616z" fill="url(#SVGID_2_)"/></g></g></g></svg>