<svg id="Capa_1" enable-background="new 0 0 512 512" height="512" viewBox="0 0 512 512" width="512" xmlns="http://www.w3.org/2000/svg" xmlns:xlink="http://www.w3.org/1999/xlink"><linearGradient id="SVGID_1_" gradientUnits="userSpaceOnUse" x1="256" x2="256" y1="512" y2="0"><stop offset="0" stop-color="#addcff"/><stop offset=".5028" stop-color="#eaf6ff"/><stop offset="1" stop-color="#eaf6ff"/></linearGradient><linearGradient id="SVGID_2_" gradientUnits="userSpaceOnUse" x1="256" x2="256" y1="335.941" y2="176.059"><stop offset="0" stop-color="#00c0ff"/><stop offset="1" stop-color="#5558ff"/></linearGradient><g><g><circle cx="256" cy="256" fill="url(#SVGID_1_)" r="256"/></g><g><g><path d="m140.529 327.059v-142.118c0-14.694 11.953-26.647 26.647-26.647h97.706v-26.647c0-14.694-11.953-26.647-26.647-26.647h-106.588c-14.694 0-26.647 11.953-26.647 26.647v248.706c0 14.694 11.953 26.647 26.647 26.647h106.588c14.694 0 26.647-11.953 26.647-26.647v-26.647h-97.706c-14.694 0-26.647-11.953-26.647-26.647zm26.648-204.294h35.529c4.91 0 8.882 3.973 8.882 8.882s-3.973 8.882-8.882 8.882h-35.529c-4.91 0-8.882-3.973-8.882-8.882s3.972-8.882 8.882-8.882zm17.764 248.706c4.905 0 8.882 3.976 8.882 8.882 0 4.905-3.977 8.882-8.882 8.882s-8.882-3.977-8.882-8.882c0-4.906 3.977-8.882 8.882-8.882zm213.177-195.412h-230.941c-4.91 0-8.882 3.973-8.882 8.883v142.117c0 4.91 3.973 8.883 8.882 8.883h230.941c4.91 0 8.882-3.973 8.882-8.883v-142.118c0-4.909-3.973-8.882-8.882-8.882zm-124.301 75.292-13.48 13.271 3.105 18.667c.555 3.313-.815 6.662-3.539 8.639-2.719 1.986-6.359 2.252-9.316.694l-16.793-8.708-16.793 8.708c-2.984 1.544-6.61 1.284-9.316-.694-2.724-1.978-4.094-5.326-3.539-8.639l3.105-18.667-13.48-13.271c-2.394-2.359-3.261-5.881-2.221-9.073 1.041-3.209 3.799-5.534 7.13-6.037l18.701-2.828 8.466-16.915c3.019-6.003 12.872-6.003 15.891 0l8.466 16.915 18.702 2.828c3.331.503 6.089 2.828 7.13 6.037 1.042 3.192.175 6.713-2.219 9.073zm97.706 0-13.48 13.271 3.105 18.667c.555 3.313-.815 6.662-3.539 8.639-2.719 1.986-6.359 2.252-9.316.694l-16.793-8.708-16.793 8.708c-2.984 1.544-6.592 1.284-9.316-.694s-4.094-5.326-3.539-8.639l3.105-18.667-13.48-13.271c-2.394-2.359-3.261-5.881-2.22-9.073 1.041-3.209 3.799-5.534 7.13-6.037l18.701-2.828 8.466-16.915c3.019-6.003 12.873-6.003 15.891 0l8.466 16.915 18.701 2.828c3.331.503 6.089 2.828 7.13 6.037 1.042 3.192.175 6.713-2.219 9.073zm-37.438-5.864-2.585-5.17-2.585 5.17c-1.301 2.585-3.765 4.372-6.627 4.806l-5.69.867 4.112 4.042c2.064 2.029 3.001 4.944 2.533 7.789l-.954 5.69 5.118-2.654c2.501-1.318 5.597-1.366 8.188 0l5.118 2.654-.954-5.69c-.468-2.845.468-5.76 2.533-7.789l4.112-4.042-5.69-.867c-2.865-.435-5.328-2.221-6.629-4.806zm-97.706 0-2.585-5.17-2.585 5.17c-1.301 2.585-3.765 4.372-6.627 4.806l-5.69.867 4.112 4.042c2.064 2.029 3.001 4.944 2.533 7.789l-.954 5.69 5.118-2.654c2.501-1.318 5.597-1.366 8.188 0l5.118 2.654-.954-5.69c-.469-2.845.468-5.76 2.533-7.789l4.112-4.042-5.69-.867c-2.864-.435-5.328-2.221-6.629-4.806z" fill="url(#SVGID_2_)"/></g></g></g></svg>