<svg id="Capa_1" enable-background="new 0 0 512 512" height="512" viewBox="0 0 512 512" width="512" xmlns="http://www.w3.org/2000/svg" xmlns:xlink="http://www.w3.org/1999/xlink"><linearGradient id="SVGID_1_" gradientUnits="userSpaceOnUse" x1="256" x2="256" y1="512" y2="0"><stop offset="0" stop-color="#ffbef9"/><stop offset="1" stop-color="#fff1ff"/></linearGradient><linearGradient id="SVGID_2_" gradientUnits="userSpaceOnUse" x1="256" x2="256" y1="407" y2="105"><stop offset="0" stop-color="#ff81ff"/><stop offset="1" stop-color="#a93aff"/></linearGradient><g><g><circle cx="256" cy="256" fill="url(#SVGID_1_)" r="256"/></g><g><g><path d="m167.177 229.353h-35.53c-14.694 0-26.647 11.953-26.647 26.647v53.294c0 14.694 11.953 26.647 26.647 26.647h35.53c4.909 0 8.882-3.973 8.882-8.882v-88.824c0-4.909-3.973-8.882-8.882-8.882zm106.588 17.765h-17.765c-14.694 0-26.647 11.953-26.647 26.647s11.953 26.647 26.647 26.647c6.849 0 13.04-2.669 17.765-6.931 4.725 4.261 10.916 6.931 17.765 6.931 14.694 0 26.647-11.953 26.647-26.647 0-34.28-27.896-62.177-62.177-62.177s-62.177 27.896-62.177 62.177 27.897 62.176 62.177 62.176c7.113 0 14.087-1.188 20.749-3.548 4.615-1.631 7.043-6.705 5.413-11.328-1.648-4.649-6.697-7.043-11.346-5.413-4.736 1.674-9.732 2.524-14.815 2.524-24.496 0-44.412-19.925-44.412-44.412s19.916-44.412 44.412-44.412 44.412 19.925 44.412 44.412c0 4.901-3.99 8.882-8.882 8.882s-8.882-3.981-8.882-8.882v-17.764c-.002-4.91-3.975-8.882-8.884-8.882zm-8.883 26.647c0 4.901-3.99 8.882-8.882 8.882s-8.882-3.981-8.882-8.882 3.99-8.882 8.882-8.882h8.882zm115.471-44.412h-35.53c-4.909 0-8.882 3.973-8.882 8.882v88.824c0 4.91 3.973 8.882 8.882 8.882h7.985c-4.127 20.247-22.061 35.529-43.514 35.529h-9.78c.586 2.871.898 5.841.898 8.882s-.312 6.011-.898 8.882h9.78c31.239 0 56.922-23.242 61.279-53.294h9.78c14.694 0 26.647-11.953 26.647-26.647v-53.293c0-14.694-11.953-26.647-26.647-26.647zm-124.353 124.353c-14.694 0-26.647 11.953-26.647 26.647s11.953 26.647 26.647 26.647 26.647-11.953 26.647-26.647-11.953-26.647-26.647-26.647zm-112.243-142.118c12.078-50.845 57.758-88.823 112.243-88.823s100.165 37.979 112.243 88.823h12.11c2.156 0 4.22.338 6.294.636-12.135-61.054-66.08-107.224-130.647-107.224s-118.512 46.17-130.647 107.225c2.074-.298 4.139-.636 6.294-.636h12.11z" fill="url(#SVGID_2_)"/></g></g></g></svg>