<svg width="82" height="80" viewBox="0 0 82 80" fill="none" xmlns="http://www.w3.org/2000/svg">
<path d="M77.9444 42.6742L74.6675 41.6245C74.2478 41.49 73.917 41.155 73.7828 40.7283C73.0922 38.5325 72.05 36.4711 70.6852 34.6011C70.0631 33.7488 69.3714 32.9348 68.6158 32.16C69.0992 30.0392 69.362 27.6391 69.328 25.5655C69.2792 22.5991 68.6864 20.8592 67.5158 20.2461C66.8853 19.9155 64.9666 18.9111 54.5811 23.6652C54.3352 23.7777 54.1055 23.9163 53.8928 24.075C53.1927 23.8869 52.477 23.7128 51.757 23.5566C51.6703 23.5377 51.5809 23.5209 51.4936 23.5025C52.3352 21.6641 52.8266 19.6673 52.9189 17.6061C52.9477 16.9636 52.4503 16.4195 51.8078 16.3909C51.167 16.3591 50.6213 16.8594 50.5927 17.5019C50.4409 20.8911 49.035 24.08 46.6341 26.4811C45.1995 27.9156 43.5198 28.9577 41.7297 29.6139C38.6252 29.1783 35.463 29.1783 32.3584 29.6139C30.5681 28.9577 28.8886 27.9156 27.4541 26.4811C24.8925 23.9195 23.4817 20.5138 23.4817 16.8911C23.4817 13.2683 24.8925 9.86266 27.4541 7.3011C30.0156 4.73938 33.4216 3.32859 37.0441 3.32859C40.6666 3.32859 44.0725 4.73938 46.6341 7.3011C47.6634 8.33047 48.5141 9.50516 49.1623 10.7922C49.4516 11.3666 50.1517 11.5978 50.7259 11.3084C51.3003 11.0194 51.5314 10.3192 51.2422 9.745C50.4823 8.23578 49.4859 6.85969 48.2808 5.65438C45.2794 2.65297 41.2887 1 37.0442 1C32.7997 1 28.8091 2.65297 25.8077 5.65438C22.8062 8.65594 21.1533 12.6464 21.1533 16.8909C21.1533 21.1355 22.8062 25.1261 25.8077 28.1275C26.6734 28.9933 27.6153 29.7378 28.6116 30.3616C28.6119 30.3616 28.6122 30.3614 28.6125 30.3614C27.8886 30.5495 27.1702 30.7608 26.4597 30.9983C25.8498 31.2022 25.5208 31.8617 25.7247 32.4717C25.9284 33.0816 26.5883 33.4106 27.198 33.2069C33.5473 31.0842 40.5411 31.0842 46.8905 33.2069C47.013 33.2478 47.1373 33.2672 47.2597 33.2672C47.7467 33.2672 48.2008 32.9591 48.3637 32.4717C48.5677 31.8619 48.2386 31.2022 47.6288 30.9983C46.9183 30.7608 46.1998 30.5494 45.4759 30.3614C45.4762 30.3614 45.4766 30.3616 45.4769 30.3616C46.4733 29.7378 47.415 28.9933 48.2808 28.1275C49.0467 27.3616 49.7228 26.5252 50.3098 25.6363C50.6308 25.6986 50.9494 25.7639 51.2633 25.832C51.6814 25.9228 52.0977 26.0203 52.5102 26.1227C52.4972 26.1733 52.4839 26.2238 52.4731 26.2752C51.9053 28.9697 51.9422 31.3528 52.5827 33.358C53.1583 35.1603 54.1972 36.6205 55.6702 37.6981C57.4062 38.9681 59.5022 39.5167 61.4008 39.5167C62.8297 39.5167 64.147 39.2058 65.1145 38.6578C66.2089 38.038 67.1258 36.7319 67.8516 34.7709C68.187 35.1625 68.505 35.5636 68.8047 35.9742C70.0198 37.6389 70.9475 39.4736 71.5619 41.427C71.9227 42.5744 72.8183 43.4772 73.9575 43.8424L77.2344 44.892C78.0942 45.1675 78.6719 45.9589 78.6719 46.8617V52.2953C78.6719 53.1981 78.0942 53.9895 77.2344 54.265L71.9548 55.9561C71.1102 56.2269 70.3953 56.8074 69.942 57.5908C67.8678 61.1755 64.6067 64.1419 60.2487 66.4077C59.7453 66.6697 59.3966 67.1383 59.2916 67.6936L57.6006 76.6472C57.5539 76.8939 57.3378 77.0728 57.0867 77.0728H51.5888C51.3377 77.0728 51.1216 76.8938 51.0748 76.6472L50.1383 71.6989C49.9539 70.7253 49.0408 70.0786 48.058 70.2275C45.6897 70.5856 43.2494 70.767 40.8052 70.767C38.9867 70.767 37.1916 70.6656 35.4692 70.4655C34.5169 70.3559 33.6297 71.0052 33.4517 71.9455L32.5617 76.6472C32.515 76.8939 32.2989 77.0728 32.0478 77.0728H26.5498C26.2987 77.0728 26.0827 76.8938 26.0353 76.6434L24.4072 68.1869C24.3023 67.642 23.9602 67.1788 23.4678 66.9158C16.0391 62.95 12.1125 56.3244 12.1125 47.7556C12.1125 43.4263 13.0597 39.598 14.9277 36.3767C16.6708 33.3706 19.2167 30.8852 22.4947 28.9891C23.0512 28.667 23.2414 27.9548 22.9195 27.3981C22.5977 26.8416 21.8855 26.6517 21.3288 26.9733C14.9727 30.6502 11.1391 36.3227 10.0836 43.5274V43.5272C9.97156 43.517 9.85938 43.5074 9.74766 43.4958C9.76797 42.7184 9.62734 41.9341 9.32109 41.1728C8.64563 39.4938 7.25812 38.2819 5.78609 38.0855C4.62609 37.9302 3.52219 38.4227 2.75609 39.4348C1.64531 40.9027 1.82641 42.0642 2.17375 42.7802C2.76016 43.9884 4.2675 44.8431 6.76891 45.3805C6.70016 45.4834 6.62453 45.5869 6.54172 45.6908C5.06375 47.5444 3.3225 47.9542 2.19187 47.9928C1.53 48.0152 1 48.5466 1 49.2089V49.2145C1 49.8678 1.51547 50.4006 2.16812 50.4305C2.25172 50.4344 2.33906 50.4364 2.43 50.4364C3.86063 50.4364 6.15672 49.9088 8.36266 47.1427C8.71094 46.7061 8.99469 46.2455 9.21281 45.7695C9.4325 45.7944 9.64359 45.8156 9.84578 45.8344C9.84578 45.8339 9.84578 45.8336 9.84594 45.8331C9.80625 46.4641 9.78422 47.1042 9.78422 47.7556C9.78422 52.6038 10.94 56.9264 13.2192 60.6041C15.3208 63.9947 18.3297 66.771 22.1653 68.8588L23.7481 77.08C24.0027 78.425 25.1809 79.4013 26.5498 79.4013H32.0478C33.4167 79.4013 34.595 78.425 34.8495 77.08L35.6542 72.8288C37.3255 73.0058 39.0558 73.0955 40.805 73.0955C43.205 73.0955 45.6022 72.9283 47.9384 72.5983L48.7867 77.0803C49.0414 78.4253 50.2197 79.4014 51.5884 79.4014H57.0864C58.4553 79.4014 59.6336 78.4252 59.8883 77.0797L61.5347 68.3624C66.1859 65.9028 69.6919 62.6719 71.9572 58.7569C72.1205 58.4747 72.3719 58.2677 72.665 58.1738L77.9444 56.4827C79.772 55.8969 81 54.2142 81 52.295V46.8614C81 44.9423 79.772 43.2597 77.9444 42.6742ZM66.8247 28.8372C66.3766 32.6694 65.1745 35.9475 63.9667 36.6316C62.5939 37.4092 59.4244 37.5594 57.0447 35.8186C54.6622 34.0758 53.8692 30.9417 54.7513 26.7552C54.7513 26.755 54.7513 26.755 54.7513 26.755C54.8398 26.3345 55.1386 25.9708 55.5503 25.7823C61.3791 23.1142 64.7395 22.2416 65.988 22.2416C66.1764 22.2416 66.3167 22.2614 66.4102 22.298C66.7852 22.6977 67.277 24.9697 66.8247 28.8372ZM4.26891 41.7634C4.14844 41.515 4.43281 41.0783 4.61313 40.8398C4.89891 40.4623 5.16219 40.3852 5.36109 40.3852C5.40312 40.3852 5.44234 40.3886 5.47828 40.3934C6.01359 40.4648 6.76359 41.0539 7.16094 42.0416C7.25453 42.2741 7.37609 42.6592 7.40453 43.1395C5.79281 42.8056 4.54062 42.3242 4.26891 41.7634Z" fill="#0A0C42" stroke="#0A0C42"/>
</svg>
