<svg width="80" height="80" viewBox="0 0 80 80" fill="none" xmlns="http://www.w3.org/2000/svg">
<path d="M74.7825 15.5122H68.9592C69.7274 14.2965 70.2342 12.932 70.3788 11.4889C70.8405 6.87687 68.4116 2.7425 64.2764 0.909539C60.4755 -0.775302 56.2041 -0.0865532 53.1283 2.70313L45.7752 9.36718C44.3432 7.80093 42.2846 6.81656 39.9999 6.81656C37.7112 6.81656 35.6493 7.80406 34.217 9.37515L26.8545 2.70235C23.7737 -0.0873343 19.504 -0.773427 15.7048 0.910476C11.5708 2.7436 9.14139 6.87937 9.60451 11.4912C9.74936 12.9333 10.2559 14.2972 11.0239 15.5122H5.21733C2.33578 15.5122 0 17.8481 0 20.7295V28.5556C0 29.9962 1.16797 31.1643 2.60874 31.1643H77.3913C78.8319 31.1643 80 29.9964 80 28.5556V20.7295C79.9998 17.8481 77.6641 15.5122 74.7825 15.5122ZM32.1738 14.6426V15.5122H19.9015C16.659 15.5122 14.1072 12.4894 14.917 9.11343C15.2737 7.62671 16.3468 6.35937 17.7348 5.71781C19.6407 4.83687 21.752 5.11969 23.3528 6.56859L32.176 14.5658C32.1756 14.5915 32.1738 14.6169 32.1738 14.6426ZM65.2021 10.7962C65.0077 13.5076 62.5585 15.5125 59.8402 15.5125H47.826V14.643C47.826 14.6122 47.8241 14.5817 47.8238 14.5509C49.8226 12.739 54.1586 8.80905 56.5104 6.67734C57.8469 5.46594 59.7171 4.90047 61.4458 5.41609C63.9266 6.15609 65.3835 8.26577 65.2021 10.7962Z" fill="#0A0C42"/>
<path d="M5.21744 36.3816V74.6425C5.21744 77.524 7.55321 79.8598 10.4348 79.8598H34.7825V36.3816H5.21744Z" fill="#0A0C42"/>
<path d="M45.2173 36.3816V79.8598H69.5651C72.4467 79.8598 74.7824 77.524 74.7824 74.6425V36.3816H45.2173Z" fill="#0A0C42"/>
</svg>
