<svg width="80" height="74" viewBox="0 0 80 74" fill="none" xmlns="http://www.w3.org/2000/svg">
<path d="M58 0C51.04 0 44.36 3.24711 40 8.37836C35.64 3.24711 28.96 0 22 0C9.68 0 0 9.70125 0 22.0483C0 37.2015 13.6 49.5485 34.2 68.3096L40 73.5611L45.8 68.2696C66.4 49.5485 80 37.2015 80 22.0483C80 9.70125 70.32 0 58 0ZM40.4 62.3366L40 62.7374L39.6 62.3366C20.56 45.0587 8 33.6337 8 22.0483C8 14.0307 14 8.01756 22 8.01756C28.16 8.01756 34.16 11.9863 36.28 17.4783H43.76C45.84 11.9863 51.84 8.01756 58 8.01756C66 8.01756 72 14.0307 72 22.0483C72 33.6337 59.44 45.0587 40.4 62.3366Z" fill="#0A0C42"/>
</svg>
