<svg width="46" height="50" viewBox="0 0 46 50" fill="none" xmlns="http://www.w3.org/2000/svg">
<path d="M44.7875 11.582L39.9586 1.46484C39.5271 0.556641 38.7607 0 37.9422 0H7.88272C7.06426 0 6.29789 0.556641 5.86635 1.46484L1.03748 11.582C-1.45508 16.8066 0.754741 24.0723 5.41248 24.9023C5.7473 24.9609 6.08956 24.9902 6.43182 24.9902C8.6342 24.9902 10.5836 23.7207 11.9229 21.7578C13.2622 23.7207 15.219 24.9902 17.414 24.9902C19.6163 24.9902 21.5658 23.7207 22.905 21.7578C24.2443 23.7207 26.2012 24.9902 28.3961 24.9902C30.5985 24.9902 32.5479 23.7207 33.8872 21.7578C35.2339 23.7207 37.1833 24.9902 39.3783 24.9902C39.728 24.9902 40.0628 24.9609 40.3976 24.9023C45.0702 24.082 47.2875 16.8164 44.7875 11.582ZM39.3931 28.125C38.6491 28.125 37.9125 27.9785 37.1982 27.7539V37.5H8.62676V27.7539C7.91248 27.9688 7.17587 28.125 6.43182 28.125C5.98539 28.125 5.53153 28.0859 5.09254 28.0078C4.67587 27.9297 4.26664 27.8027 3.8723 27.6563V46.875C3.8723 48.6035 4.93629 50 6.25325 50H39.5866C40.9035 50 41.9675 48.6035 41.9675 46.875V27.6563C41.5658 27.8125 41.164 27.9395 40.7473 28.0078C40.2934 28.0859 39.847 28.125 39.3931 28.125Z" fill="#0A0C42"/>
</svg>
